<svg width="257" height="43" viewBox="0 0 257 43" fill="none" xmlns="http://www.w3.org/2000/svg">
<path d="M31.7909 40.02C29.3109 41.66 25.8709 42.48 21.4709 42.48C15.4309 42.48 10.4909 40.6 6.65086 36.84C2.81086 33.08 0.89086 28.04 0.89086 21.72C0.89086 15.6 2.81086 10.62 6.65086 6.78C10.5309 2.94 15.4309 1.02 21.3509 1.02C25.6709 1.02 29.1309 1.76 31.7309 3.24V9.3C29.9709 8.34 28.3709 7.68 26.9309 7.32C25.5309 6.92 23.7309 6.72 21.5309 6.72C17.4909 6.72 14.1109 8.1 11.3909 10.86C8.71086 13.58 7.37086 17.2 7.37086 21.72C7.37086 26.32 8.71086 29.98 11.3909 32.7C14.0709 35.42 17.6109 36.78 22.0109 36.78C25.8909 36.78 29.1509 35.78 31.7909 33.78V40.02ZM43.939 42H36.559L49.519 21.54L37.279 1.56H44.419L52.999 16.08L61.459 1.56H68.839L56.599 21.6L69.979 42H62.719L53.119 26.82L43.939 42ZM108.26 41.34C106.78 41.98 104.78 42.3 102.26 42.3C95.3404 42.3 91.8804 38.84 91.8804 31.92V18H87.5004V11.58H91.8804V4.38H100.64V11.58H107.72V18H100.64V31.98C100.64 33.06 100.94 33.88 101.54 34.44C102.18 35 103 35.28 104 35.28C105.6 35.28 107.02 34.88 108.26 34.08V41.34ZM122.345 42H113.585L113.645 11.58H122.345V17.22C122.905 15.46 123.825 14.06 125.105 13.02C126.425 11.94 127.945 11.4 129.665 11.4C130.625 11.4 131.385 11.48 131.945 11.64V19.92C130.985 19.48 129.885 19.26 128.645 19.26C126.765 19.26 125.245 19.96 124.085 21.36C122.925 22.72 122.345 24.54 122.345 26.82V42ZM147.012 36C148.252 36 149.212 35.62 149.892 34.86C150.572 34.1 150.912 33.06 150.912 31.74V29.52H148.092C146.612 29.52 145.472 29.84 144.672 30.48C143.872 31.12 143.472 31.94 143.472 32.94C143.472 34.98 144.652 36 147.012 36ZM151.332 38.28C150.052 40.88 147.532 42.18 143.772 42.18C140.812 42.18 138.492 41.34 136.812 39.66C135.172 37.98 134.352 35.88 134.352 33.36C134.352 30.44 135.412 28.18 137.532 26.58C139.692 24.94 142.872 24.12 147.072 24.12H150.912V22.02C150.912 19.46 149.212 18.18 145.812 18.18C142.532 18.18 139.492 19.1 136.692 20.94V13.08C139.092 11.72 142.552 11.04 147.072 11.04C151.392 11.04 154.612 11.98 156.732 13.86C158.852 15.7 159.912 18.58 159.912 22.5V42H151.332V38.28ZM175.549 42H166.789V0.599997H175.549V25.2L185.149 11.58H195.229L184.669 26.16L195.409 42H185.269L175.549 27.06V42ZM208.421 42H199.661V0.599997H208.421V25.2L218.021 11.58H228.101L217.541 26.16L228.281 42H218.141L208.421 27.06V42ZM243.692 36C244.932 36 245.892 35.62 246.572 34.86C247.252 34.1 247.592 33.06 247.592 31.74V29.52H244.772C243.292 29.52 242.152 29.84 241.352 30.48C240.552 31.12 240.152 31.94 240.152 32.94C240.152 34.98 241.332 36 243.692 36ZM248.012 38.28C246.732 40.88 244.212 42.18 240.452 42.18C237.492 42.18 235.172 41.34 233.492 39.66C231.852 37.98 231.032 35.88 231.032 33.36C231.032 30.44 232.092 28.18 234.212 26.58C236.372 24.94 239.552 24.12 243.752 24.12H247.592V22.02C247.592 19.46 245.892 18.18 242.492 18.18C239.212 18.18 236.172 19.1 233.372 20.94V13.08C235.772 11.72 239.232 11.04 243.752 11.04C248.072 11.04 251.292 11.98 253.412 13.86C255.532 15.7 256.592 18.58 256.592 22.5V42H248.012V38.28Z" fill="white"/>
</svg>
